<mxfile host="app.diagrams.net" modified="2021-05-10T10:59:57.591Z" agent="5.0 (Windows NT 10.0; Win64; x64) AppleWebKit/537.36 (KHTML, like Gecko) Chrome/90.0.4430.93 Safari/537.36" etag="w_CRIn-wboAHL24-KcYT" version="14.6.11" type="github">
  <diagram id="3LM61FJpf5n0VOVSR5PG" name="Page-1">
    <mxGraphModel dx="982" dy="589" grid="1" gridSize="10" guides="1" tooltips="1" connect="1" arrows="1" fold="1" page="1" pageScale="1" pageWidth="827" pageHeight="1169" math="0" shadow="0">
      <root>
        <mxCell id="0" />
        <mxCell id="1" parent="0" />
        <mxCell id="uVf-oU9bRexQyP0NUmEM-1" value="显示字幕列表" style="rounded=0;whiteSpace=wrap;html=1;" vertex="1" parent="1">
          <mxGeometry x="280" y="200" width="120" height="40" as="geometry" />
        </mxCell>
        <mxCell id="uVf-oU9bRexQyP0NUmEM-3" style="edgeStyle=orthogonalEdgeStyle;rounded=0;orthogonalLoop=1;jettySize=auto;html=1;" edge="1" parent="1" source="uVf-oU9bRexQyP0NUmEM-2" target="uVf-oU9bRexQyP0NUmEM-1">
          <mxGeometry relative="1" as="geometry" />
        </mxCell>
        <mxCell id="uVf-oU9bRexQyP0NUmEM-2" value="点击获取字幕列表" style="rounded=1;whiteSpace=wrap;html=1;" vertex="1" parent="1">
          <mxGeometry x="280" y="120" width="120" height="40" as="geometry" />
        </mxCell>
        <mxCell id="uVf-oU9bRexQyP0NUmEM-8" style="edgeStyle=orthogonalEdgeStyle;rounded=0;orthogonalLoop=1;jettySize=auto;html=1;entryX=0.5;entryY=0;entryDx=0;entryDy=0;" edge="1" parent="1" source="uVf-oU9bRexQyP0NUmEM-4" target="uVf-oU9bRexQyP0NUmEM-6">
          <mxGeometry relative="1" as="geometry" />
        </mxCell>
        <mxCell id="uVf-oU9bRexQyP0NUmEM-9" style="edgeStyle=orthogonalEdgeStyle;rounded=0;orthogonalLoop=1;jettySize=auto;html=1;" edge="1" parent="1" source="uVf-oU9bRexQyP0NUmEM-4" target="uVf-oU9bRexQyP0NUmEM-7">
          <mxGeometry relative="1" as="geometry" />
        </mxCell>
        <mxCell id="uVf-oU9bRexQyP0NUmEM-4" value="视频播放" style="rounded=1;whiteSpace=wrap;html=1;" vertex="1" parent="1">
          <mxGeometry x="160" y="280" width="120" height="40" as="geometry" />
        </mxCell>
        <mxCell id="uVf-oU9bRexQyP0NUmEM-6" value="视频上显示字幕" style="rounded=0;whiteSpace=wrap;html=1;" vertex="1" parent="1">
          <mxGeometry x="80" y="400" width="120" height="40" as="geometry" />
        </mxCell>
        <mxCell id="uVf-oU9bRexQyP0NUmEM-7" value="字幕列表滚动到对应位置" style="rounded=0;whiteSpace=wrap;html=1;" vertex="1" parent="1">
          <mxGeometry x="240" y="400" width="120" height="40" as="geometry" />
        </mxCell>
        <mxCell id="uVf-oU9bRexQyP0NUmEM-12" style="edgeStyle=orthogonalEdgeStyle;rounded=0;orthogonalLoop=1;jettySize=auto;html=1;" edge="1" parent="1" source="uVf-oU9bRexQyP0NUmEM-10" target="uVf-oU9bRexQyP0NUmEM-11">
          <mxGeometry relative="1" as="geometry" />
        </mxCell>
        <mxCell id="uVf-oU9bRexQyP0NUmEM-10" value="点击字幕" style="rounded=1;whiteSpace=wrap;html=1;" vertex="1" parent="1">
          <mxGeometry x="440" y="280" width="120" height="40" as="geometry" />
        </mxCell>
        <mxCell id="uVf-oU9bRexQyP0NUmEM-11" value="视频跳转到字幕对应的帧" style="rounded=0;whiteSpace=wrap;html=1;" vertex="1" parent="1">
          <mxGeometry x="440" y="360" width="120" height="40" as="geometry" />
        </mxCell>
        <mxCell id="uVf-oU9bRexQyP0NUmEM-16" style="edgeStyle=orthogonalEdgeStyle;rounded=0;orthogonalLoop=1;jettySize=auto;html=1;" edge="1" parent="1" source="uVf-oU9bRexQyP0NUmEM-14" target="uVf-oU9bRexQyP0NUmEM-15">
          <mxGeometry relative="1" as="geometry" />
        </mxCell>
        <mxCell id="uVf-oU9bRexQyP0NUmEM-14" value="高级检索字幕" style="rounded=1;whiteSpace=wrap;html=1;" vertex="1" parent="1">
          <mxGeometry x="640" y="280" width="120" height="40" as="geometry" />
        </mxCell>
        <mxCell id="uVf-oU9bRexQyP0NUmEM-15" value="字幕列表高亮内容" style="rounded=0;whiteSpace=wrap;html=1;" vertex="1" parent="1">
          <mxGeometry x="640" y="360" width="120" height="40" as="geometry" />
        </mxCell>
        <mxCell id="uVf-oU9bRexQyP0NUmEM-19" style="edgeStyle=orthogonalEdgeStyle;rounded=0;orthogonalLoop=1;jettySize=auto;html=1;" edge="1" parent="1" source="uVf-oU9bRexQyP0NUmEM-17" target="uVf-oU9bRexQyP0NUmEM-18">
          <mxGeometry relative="1" as="geometry" />
        </mxCell>
        <mxCell id="uVf-oU9bRexQyP0NUmEM-17" value="点击编辑" style="rounded=1;whiteSpace=wrap;html=1;" vertex="1" parent="1">
          <mxGeometry x="360" y="480" width="120" height="40" as="geometry" />
        </mxCell>
        <mxCell id="uVf-oU9bRexQyP0NUmEM-22" style="edgeStyle=orthogonalEdgeStyle;rounded=0;orthogonalLoop=1;jettySize=auto;html=1;" edge="1" parent="1" source="uVf-oU9bRexQyP0NUmEM-18" target="uVf-oU9bRexQyP0NUmEM-21">
          <mxGeometry relative="1" as="geometry" />
        </mxCell>
        <mxCell id="uVf-oU9bRexQyP0NUmEM-18" value="字幕列表进入编辑状态" style="rounded=0;whiteSpace=wrap;html=1;" vertex="1" parent="1">
          <mxGeometry x="360" y="560" width="120" height="40" as="geometry" />
        </mxCell>
        <mxCell id="uVf-oU9bRexQyP0NUmEM-20" value="字幕列表进入编辑状态" style="rounded=0;whiteSpace=wrap;html=1;" vertex="1" parent="1">
          <mxGeometry x="20" y="460" width="120" height="40" as="geometry" />
        </mxCell>
        <mxCell id="uVf-oU9bRexQyP0NUmEM-25" style="edgeStyle=orthogonalEdgeStyle;rounded=0;orthogonalLoop=1;jettySize=auto;html=1;" edge="1" parent="1" source="uVf-oU9bRexQyP0NUmEM-21" target="uVf-oU9bRexQyP0NUmEM-23">
          <mxGeometry relative="1" as="geometry" />
        </mxCell>
        <mxCell id="uVf-oU9bRexQyP0NUmEM-21" value="是否点击保存？" style="rhombus;whiteSpace=wrap;html=1;" vertex="1" parent="1">
          <mxGeometry x="355" y="630" width="130" height="60" as="geometry" />
        </mxCell>
        <mxCell id="uVf-oU9bRexQyP0NUmEM-29" style="edgeStyle=orthogonalEdgeStyle;rounded=0;orthogonalLoop=1;jettySize=auto;html=1;entryX=0.5;entryY=0;entryDx=0;entryDy=0;" edge="1" parent="1" source="uVf-oU9bRexQyP0NUmEM-23" target="uVf-oU9bRexQyP0NUmEM-28">
          <mxGeometry relative="1" as="geometry" />
        </mxCell>
        <mxCell id="uVf-oU9bRexQyP0NUmEM-23" value="提交数据" style="rounded=0;whiteSpace=wrap;html=1;" vertex="1" parent="1">
          <mxGeometry x="360" y="720" width="120" height="40" as="geometry" />
        </mxCell>
        <mxCell id="uVf-oU9bRexQyP0NUmEM-24" value="字幕列表退出编辑状态" style="rounded=0;whiteSpace=wrap;html=1;" vertex="1" parent="1">
          <mxGeometry x="360" y="960" width="120" height="40" as="geometry" />
        </mxCell>
        <mxCell id="uVf-oU9bRexQyP0NUmEM-27" value="是" style="text;html=1;strokeColor=none;fillColor=none;align=center;verticalAlign=middle;whiteSpace=wrap;rounded=0;" vertex="1" parent="1">
          <mxGeometry x="380" y="690" width="40" height="20" as="geometry" />
        </mxCell>
        <mxCell id="uVf-oU9bRexQyP0NUmEM-30" style="edgeStyle=orthogonalEdgeStyle;rounded=0;orthogonalLoop=1;jettySize=auto;html=1;entryX=0.5;entryY=0;entryDx=0;entryDy=0;" edge="1" parent="1" source="uVf-oU9bRexQyP0NUmEM-28" target="uVf-oU9bRexQyP0NUmEM-31">
          <mxGeometry relative="1" as="geometry">
            <mxPoint x="420" y="880" as="targetPoint" />
          </mxGeometry>
        </mxCell>
        <mxCell id="uVf-oU9bRexQyP0NUmEM-28" value="是否成功？" style="rhombus;whiteSpace=wrap;html=1;" vertex="1" parent="1">
          <mxGeometry x="355" y="790" width="130" height="60" as="geometry" />
        </mxCell>
        <mxCell id="uVf-oU9bRexQyP0NUmEM-33" style="edgeStyle=orthogonalEdgeStyle;rounded=0;orthogonalLoop=1;jettySize=auto;html=1;" edge="1" parent="1" source="uVf-oU9bRexQyP0NUmEM-31" target="uVf-oU9bRexQyP0NUmEM-24">
          <mxGeometry relative="1" as="geometry" />
        </mxCell>
        <mxCell id="uVf-oU9bRexQyP0NUmEM-31" value="本地更新字幕列表数据" style="rounded=0;whiteSpace=wrap;html=1;" vertex="1" parent="1">
          <mxGeometry x="360" y="880" width="120" height="40" as="geometry" />
        </mxCell>
      </root>
    </mxGraphModel>
  </diagram>
</mxfile>
